<?xml version="1.0" encoding="UTF-8"?>
<!DOCTYPE svg PUBLIC "-//W3C//DTD SVG 1.0//EN" "http://www.w3.org/TR/2001/REC-SVG-20010904/DTD/svg10.dtd">
<svg width="1010" height="300" viewBox="0 0 1010 300" xmlns="http://www.w3.org/2000/svg" xmlns:xlink="http://www.w3.org/1999/xlink">
    <rect x="0" y="0" width="1010" height="300" fill="white" />
    <rect x="35" y="30" width="950" height="246" fill="none" stroke="black" stroke-width="1" />
    <path fill="none" stroke="black" stroke-width="2" stroke-linecap="round" stroke-linejoin="round" d="M 35 203 L 54 207 L 72 203 L 91 198 L 110 200 L 129 191 L 147 182 L 166 178 L 185 130 L 203 94 L 222 96 L 241 139 L 259 196 L 278 205 L 297 223 L 316 232 L 334 221 L 353 223 L 372 235 L 390 250 L 390 250 L 409 248 L 427 239 L 446 241 L 465 241 L 483 241 L 502 241 L 520 232 L 539 232 L 557 235 L 576 228 L 594 239 L 613 241 L 631 239 L 650 244 L 650 244 L 669 239 L 687 241 L 706 237 L 724 232 L 743 232 L 762 228 L 780 212 L 799 182 L 817 146 L 836 96 L 855 55 L 873 187 L 892 216 L 911 244 L 929 255 L 948 246 L 966 241 L 985 244 L 985 244 L  "/>
    <text fill="black" text-anchor="end" x="30" y="256">219</text>
    <line stroke = "red" stroke-dasharray="2,2" x1="35" y1="255" x2="985" y2="255"/>
    <text fill="black" text-anchor="end" x="30" y="59">307</text>
    <line stroke = "red" stroke-dasharray="2,2" x1="35" y1="55" x2="985" y2="55"/>
    <text fill="black" text-anchor="middle" x="985" y="288">5.2 km</text>
    <line stroke = "black" stroke-dasharray="2,2" x1="35" y1="71" x2="985" y2="71"/>
    <text fill="black" text-anchor="end" x="30" y="75">300</text>
    <text fill="black" text-anchor="middle" x="35" y="288">0</text>
    <line stroke ="black" x1="217.0" y1="276" x2="217.0" y2="269"/>
    <text fill="black" text-anchor="middle" x="217.0" y="288">1</text>
    <line stroke ="black" x1="400.0" y1="276" x2="400.0" y2="269"/>
    <text fill="black" text-anchor="middle" x="400.0" y="288">2</text>
    <line stroke ="black" x1="582.0" y1="276" x2="582.0" y2="269"/>
    <text fill="black" text-anchor="middle" x="582.0" y="288">3</text>
    <line stroke ="black" x1="765.0" y1="276" x2="765.0" y2="269"/>
    <text fill="black" text-anchor="middle" x="765.0" y="288">4</text>
    <text fill="black" x="450" y="20">Ascending: 159</text>
    <text fill="black" x="550" y="20">Descending: 177</text>
    <text fill="black" x="2" y="25">Height (m)</text>
</svg>